<svg xmlns="http://www.w3.org/2000/svg" width="512" height="512" viewBox="0 0 512 512">
  <defs>
    <linearGradient id="grad" x1="0%" y1="0%" x2="100%" y2="100%">
      <stop offset="0%" style="stop-color:#6366f1;stop-opacity:1" />
      <stop offset="100%" style="stop-color:#8b5cf6;stop-opacity:1" />
    </linearGradient>
  </defs>
  <rect width="512" height="512" rx="100" fill="url(#grad)"/>
  <g fill="white">
    <!-- Camera icon -->
    <path d="M160 176c0-17.7 14.3-32 32-32h32l16-32h32l16 32h32c17.7 0 32 14.3 32 32v128c0 17.7-14.3 32-32 32H192c-17.7 0-32-14.3-32-32V176z" opacity="0.9"/>
    <circle cx="256" cy="240" r="40" fill="#6366f1"/>
    <!-- Location pin -->
    <path d="M336 320c0 48-80 112-80 112s-80-64-80-112c0-44.2 35.8-80 80-80s80 35.8 80 80z" opacity="0.9"/>
    <circle cx="256" cy="320" r="24" fill="#6366f1"/>
  </g>
  <!-- Text -->
  <text x="256" y="440" font-family="Arial, sans-serif" font-size="48" font-weight="bold" fill="white" text-anchor="middle">ABSENSI</text>
</svg>
